<svg xmlns="http://www.w3.org/2000/svg" viewBox="0 0 64 64" role="img" aria-label="Placemate" fill="currentColor">
  <defs>
    <mask id="pmHeart">
      <rect width="64" height="64" fill="#fff"/>
      <path d="M12 21.35l-1.45-1.32C5.4 15.36 2 12.28 2 8.5 2 5.42 4.42 3 7.5 3c1.74 0 3.41.81 4.5 2.09C13.09 3.81 14.76 3 16.5 3 19.58 3 22 5.42 22 8.5c0 3.78-3.4 6.86-8.55 11.54L12 21.35z" fill="#000" transform="translate(21.8 14.6) scale(0.85)"/>
    </mask>
  </defs>
  <path d="M32 7 C 21 7 12 16 12 27 C 12 38 25 52 31 57.5 C 31.6 58.1 32.4 58.1 33 57.5 C 39 52 52 38 52 27 C 52 16 43 7 32 7 Z" mask="url(#pmHeart)"/>
</svg>
