<svg xmlns="http://www.w3.org/2000/svg" viewBox="0 0 330 72" role="img" aria-label="placemate">
  <defs>
    <linearGradient id="pmLogoGrad" x1="0" y1="0" x2="1" y2="1">
      <stop offset="0" stop-color="#10b981"/>
      <stop offset="1" stop-color="#005eb8"/>
    </linearGradient>
  </defs>
  <g transform="translate(4 4)">
    <path d="M32 7 C 21 7 12 16 12 27 C 12 38 25 52 31 57.5 C 31.6 58.1 32.4 58.1 33 57.5 C 39 52 52 38 52 27 C 52 16 43 7 32 7 Z" fill="url(#pmLogoGrad)"/>
    <path d="M12 21.35l-1.45-1.32C5.4 15.36 2 12.28 2 8.5 2 5.42 4.42 3 7.5 3c1.74 0 3.41.81 4.5 2.09C13.09 3.81 14.76 3 16.5 3 19.58 3 22 5.42 22 8.5c0 3.78-3.4 6.86-8.55 11.54L12 21.35z" fill="#ffffff" transform="translate(21.8 14.6) scale(0.85)"/>
  </g>
  <text x="80" y="47" font-family="ui-rounded, 'SF Pro Rounded', 'Segoe UI', system-ui, sans-serif" font-size="40" font-weight="800" letter-spacing="-1.2">
    <tspan fill="#16212f">place</tspan><tspan fill="#059669">mate</tspan>
  </text>
</svg>
